<svg xmlns="http://www.w3.org/2000/svg" width="16" height="16" fill="none"><path fill="#198BA9" d="M14.582 2.541V.536A.584.584 0 0 0 14.4.155a.573.573 0 0 0-.965.381v2.005c-.41.124-.77.377-1.025.723a2.018 2.018 0 0 0 0 2.396c.256.346.615.6 1.025.723v8.99a.586.586 0 0 0 .343.578.572.572 0 0 0 .775-.342.586.586 0 0 0 .03-.236v-8.99c.41-.123.77-.377 1.025-.723a2.018 2.018 0 0 0 0-2.396 1.987 1.987 0 0 0-1.025-.723Zm.265 1.92a.855.855 0 0 1-.517.787.834.834 0 0 1-.919-.184.852.852 0 0 1 .599-1.45c.222.002.434.091.59.25a.853.853 0 0 1 .247.596ZM8.574 8.25V.535a.584.584 0 0 0-.183-.381.573.573 0 0 0-.965.381v7.713c-.41.124-.77.377-1.025.724a2.018 2.018 0 0 0 0 2.395c.256.346.615.6 1.025.723v3.282a.587.587 0 0 0 .343.578.572.572 0 0 0 .775-.342.587.587 0 0 0 .03-.236v-3.281c.41-.124.77-.378 1.025-.724a2.017 2.017 0 0 0 0-2.395 1.986 1.986 0 0 0-1.025-.724Zm.265 1.919a.855.855 0 0 1-.517.787.834.834 0 0 1-.919-.183.851.851 0 0 1-.181-.927.847.847 0 0 1 .78-.523c.222.001.434.09.591.249a.853.853 0 0 1 .246.597ZM2.566 2.541V.536a.584.584 0 0 0-.183-.381.573.573 0 0 0-.965.381v2.005c-.41.124-.77.377-1.025.723a2.018 2.018 0 0 0 0 2.396c.256.346.615.6 1.025.723v8.99a.587.587 0 0 0 .343.578.572.572 0 0 0 .775-.342.587.587 0 0 0 .03-.236v-8.99c.41-.123.77-.377 1.025-.723a2.018 2.018 0 0 0 0-2.396 1.986 1.986 0 0 0-1.025-.723Zm.265 1.92a.855.855 0 0 1-.517.787.834.834 0 0 1-.918-.184.852.852 0 0 1 .598-1.45c.222.002.434.091.591.25a.853.853 0 0 1 .246.596Z"/></svg>